<svg aria-hidden="true" style="position: absolute; width: 0; height: 0; overflow: hidden;" version="1.1" xmlns="http://www.w3.org/2000/svg" xmlns:xlink="http://www.w3.org/1999/xlink">
    <defs>
        <symbol id="icon-github" viewBox="0 0 32 32">
            <path d="M16 3.2c-7.069 0-12.8 5.731-12.8 12.8 0 5.998 4.13 11.017 9.698 12.405-0.060-0.173-0.098-0.373-0.098-0.622v-2.188c-0.519 0-1.39 0-1.609 0-0.876 0-1.654-0.377-2.032-1.076-0.419-0.778-0.492-1.967-1.531-2.694-0.308-0.242-0.074-0.518 0.282-0.481 0.656 0.186 1.2 0.636 1.712 1.303 0.51 0.669 0.75 0.82 1.702 0.82 0.462 0 1.153-0.027 1.804-0.129 0.35-0.889 0.955-1.707 1.694-2.093-4.262-0.438-6.297-2.559-6.297-5.438 0-1.239 0.528-2.438 1.425-3.449-0.294-1.003-0.665-3.047 0.113-3.826 1.918 0 3.077 1.244 3.356 1.58 0.956-0.327 2.005-0.513 3.108-0.513 1.105 0 2.159 0.186 3.117 0.515 0.275-0.334 1.436-1.582 3.358-1.582 0.781 0.78 0.406 2.833 0.109 3.834 0.892 1.008 1.417 2.204 1.417 3.441 0 2.877-2.031 4.996-6.287 5.437 1.171 0.611 2.026 2.329 2.026 3.622v2.916c0 0.111-0.025 0.191-0.037 0.286 4.988-1.748 8.571-6.484 8.571-12.069 0-7.069-5.731-12.8-12.8-12.8z"></path>
        </symbol>
        <symbol id="icon-snapple" viewBox="0 0 32 32">
            <path fill="#fff" style="fill: var(--color1, #fff)" d="M0 0h32v32h-32v-32z"></path>
            <path fill="#fff" style="fill: var(--color1, #fff)" d="M31.524 11.147c-0.699-2.022-2.905-3.094-4.927-2.395l-0.872 0.3-0.023-1.491c1.595-0.486 0.828-0.204 0.061 0.077l-2.374 0.758 0.038 0.558 0.384 0.213 0.053 0.58-15.882 5.401v-1.849l-0.593 0.001-0.295 0.414s-0.119 0.218-0.452 0.156c0 0-2.027-0.691-3.291 0.775 0 0-0.976 1.127-0.632 2.366-1.968 0.73-3.002 2.903-2.313 4.897 0.699 2.022 2.905 3.094 4.927 2.395l10.819-3.745-0.055 0.484-0.508 0.176-0.047 0.908 3.158-1.092 0.039-0.912-0.534 0.186 0.040-0.485 1.625-0.548-0.061 0.483-0.508 0.176-0.046 0.908 3.159-1.092 0.039-0.912-0.452 0.156 0.010-0.455 7.12-2.466c2.022-0.699 3.094-2.905 2.395-4.927z"></path>
            <path fill="#000" style="fill: var(--color2, #000)" d="M3.339 17.315c0.474 0.935 1.489 1.211 2.353 1.636 0.767 0.354 1.179 1.261 0.801 2.028-0.354 0.719-1.213 1.131-2.003 0.896-0.144-0.047-0.846-0.471-0.366-1.289 0.179-0.305 0.643-0.482 1.002-0.34 0.288 0.118 0.361 0.452 0.387 0.739 0 0.072 0.322-0.125 0.38-0.48 0.039-0.241-0.050-0.454-0.195-0.668-0.627-0.881-1.774-0.827-2.584-0.272-0.5 0.337-0.843 0.841-0.829 1.415 0.045 1.837 1.947 2.247 2.905 2.064 1.595-0.305 3.244-1.477 3.138-3.222-0.051-0.597-0.246-1.17-0.75-1.574-0.577-0.451-1.247-0.614-1.894-0.922-0.144-0.047-0.576-0.314-0.745-0.593-0.247-0.409-0.244-0.907 0.184-1.173 0.357-0.217 0.764-0.291 1.171-0.198 0.359 0.093 0.624 0.331 0.864 0.593 0.12 0.143 0.217 0.262 0.289 0.429 0.049 0.143 0.074 0.31 0.17 0.429 0.066-0.933 0.037-1.889 0.055-2.822-0-0.024-0-0.096-0.024-0.095-0.119 0.12-0.166 0.264-0.285 0.384-0.143 0.12-0.334 0.121-0.501 0.146-0.526 0.027-0.967-0.221-1.531-0.183-0.662 0.045-1.622 0.607-1.977 1.398-0.212 0.528-0.28 1.15-0.014 1.674z"></path>
            <path fill="#000" style="fill: var(--color2, #000)" d="M9.746 17.135c-0.218-0.405-0.72-0.498-1.101-0.257-0.524 0.338-0.903 0.914-0.828 1.535 0 0.024 0.024 0.048 0.048 0.024 0.119-0.168 0.141-0.36 0.332-0.48 0.119-0.073 0.262-0.121 0.383-0.026 0.072 0.071 0.097 0.167 0.097 0.287 0.049 0.287 0.013 2.319-0.030 3.085-0.023 0.168-0.142 0.288-0.165 0.455 0.119-0.072 1.241-0.461 1.67-0.631-0.072-0.047-0.168-0.071-0.216-0.166-0.024-0.095-0.049-0.167-0.073-0.263-0.026-0.335-0.004-0.67-0.006-1.004-0.003-0.454 0.019-0.885 0.088-1.339 0.046-0.335 0.116-0.67 0.377-0.911 0.095-0.096 0.295-0.123 0.311-0.002 0.124 0.948-0.085 1.842 0.183 2.773 0.025 0.12 0.097 0.239 0.193 0.334 0.12 0.143 0.312 0.19 0.479 0.212 0.335-0.002 0.597-0.195 0.81-0.435 0.261-0.312 0.355-0.695 0.448-1.079 0.662 0.654 1.105 0.671 1.319 0.638 0.622-0.097 0.81-0.579 0.976-0.747 0.168 0.166 0.384 0.237 0.599 0.164 0.525-0.17 0.833-0.698 0.949-1.225 0.053 0.956 0.035 1.913-0.007 2.87 0.001 0.191-0.068 0.408-0.247 0.536-0.026 0.018 1.768-0.626 1.777-0.641-0.143 0.001-0.211-0.142-0.216-0.214-0.065-0.905-0.034-1.745-0.039-2.63 0.578 0.31 0.981 0.138 1.172 0.065 0.477-0.242 0.801-0.676 0.95-1.177 0.18-0.606 0.195-1.806 0.083-2.248-0.119-0.473-0.268-0.955-0.7-1.192-0.576-0.332-1.147 0.15-1.575 0.559-0.024 0.024-0.144-0.142-0.144-0.142l-1.193 0.413s0.144 0.143 0.145 0.239c0.078 1.076 0.060 2.152 0.018 3.228-0.167 0.073-0.166 0.264-0.285 0.36-0.071 0.048-0.143 0.096-0.215 0.097-0.12-0.023-0.216-0.118-0.216-0.238-0.053-0.932-0.075-1.864-0.016-2.798 0.028-0.442 0.218-0.769 0.218-0.769l-1.244 0.427s-0.123 0.229-0.146 0.348c-0.768-0.498-1.625 0.177-1.956 0.872-0.425 0.911-0.491 2.011-0.127 2.966 0.073 0.167-0.093 0.359-0.236 0.48-0.095 0.096-0.304 0.152-0.335 0.050-0.211-0.704-0.034-1.722-0.111-2.582-0.026-0.335-0.147-0.669-0.435-0.834-0.144-0.071-0.287-0.094-0.431-0.069-0.621 0.099-0.976 0.627-1.332 1.084z"></path>
            <path fill="#fff" style="fill: var(--color1, #fff)" d="M14.107 18.664c-0.219-0.021-0.312-0.213-0.385-0.356-0.097-0.262-0.123-0.549-0.1-0.812 0.045-0.455 0.090-0.909 0.375-1.317 0.142-0.192 0.405-0.38 0.573-0.147 0.058 0.080 0.068 0.31 0.074 0.454 0.024 0.532 0.069 1.273-0.085 1.818-0.047 0.168-0.213 0.384-0.452 0.361zM18.852 16.389c-0.046 0.287-0.14 0.575-0.354 0.791-0.143 0.12-0.358 0.169-0.502 0.003-0.072-0.071-0.072-0.164-0.073-0.262-0.004-0.598-0.041-1.101-0.018-1.641 0.012-0.287 0.298-0.723 0.488-0.741 0.139-0.013 0.234 0.034 0.307 0.129 0.313 0.524 0.245 1.146 0.153 1.721z"></path>
            <path fill="#000" style="fill: var(--color2, #000)" d="M20.342 19.645c0.001 0.191-0.068 0.408-0.247 0.536-0.026 0.018 1.768-0.626 1.777-0.641-0.144 0.001-0.211-0.142-0.217-0.214-0.064-0.905-0.034-1.745-0.039-2.63 0.578 0.31 0.981 0.138 1.172 0.065 0.477-0.242 0.801-0.676 0.95-1.177 0.18-0.606 0.194-1.806 0.083-2.248-0.12-0.473-0.268-0.955-0.7-1.192-0.576-0.331-1.147 0.15-1.575 0.559-0.024 0.024-0.144-0.142-0.144-0.142l-1.193 0.413s0.145 0.143 0.145 0.239c0.078 1.075 0.031 5.475-0.011 6.432z"></path>
            <path fill="#fff" style="fill: var(--color1, #fff)" d="M22.611 15.089c-0.046 0.287-0.14 0.575-0.354 0.791-0.143 0.12-0.358 0.17-0.502 0.003-0.072-0.071-0.072-0.164-0.073-0.263-0.005-0.598-0.041-1.101-0.018-1.641 0.012-0.287 0.299-0.723 0.488-0.741 0.139-0.013 0.234 0.034 0.307 0.129 0.314 0.524 0.246 1.146 0.153 1.721z"></path>
            <path fill="#000" style="fill: var(--color2, #000)" d="M24.995 15.923c0.626-0.049 1.118-0.915 1.162-1.585 0-0.024-0.024-0.048-0.048-0.024-0.095 0.168-0.165 0.336-0.332 0.432-0.119 0.073-0.334 0.050-0.335-0.094-0.012-2.104 0.031-6.371 0.031-6.371l-1.479 0.511s0.172 0.2 0.172 0.319c0.179 1.96-0.025 3.922 0.034 5.882 0.001 0.143 0.004 0.286 0.051 0.43 0.15 0.471 0.645 0.505 0.744 0.498z"></path>
            <path fill="#000" style="fill: var(--color2, #000)" d="M27.644 14.975c0.5-0.062 0.931-0.292 1.263-0.677 0.309-0.384 0.521-0.888 0.398-1.389-0.283 0.599-0.901 1.249-1.62 1.038-0.407-0.141-0.482-0.667-0.46-1.050 1.333 0.32 1.799-0.489 1.957-0.705 0.1-0.136 0.572-1.553-0.441-1.91-0.536-0.189-1.125-0.161-1.625 0.153-0.453 0.266-0.761 0.65-0.974 1.106-0.259 0.671-0.303 1.389-0.179 2.105 0.148 0.812 0.869 1.43 1.682 1.329z"></path>
            <path fill="#fff" style="fill: var(--color1, #fff)" d="M27.604 12.226c-0.143 0.001-0.287-0.046-0.312-0.19-0.027-0.454 0.185-1.149 0.783-1.057 0.096 0.023 0.144 0.119 0.169 0.214 0.098 0.454-0.090 1.029-0.64 1.032z"></path>
            <path fill="#000" style="fill: var(--color2, #000)" d="M7.924 16.21l15.988-5.579-0.007-0.453-15.975 5.574-0.005 0.458zM5.683 17.022l1.537-0.566c-0.040-0.168-0.213-0.381-0.213-0.381l-1.765 0.639c0 0 0.167 0.269 0.442 0.309zM16.261 19.595l-11.095 3.871c-0.107 0.043-2.658 1.037-3.751-1.793-0.819-2.891 1.66-3.762 1.769-3.795l-0.276-0.362c-0.076 0.023-0.625 0.183-1.241 0.797-0.594 0.592-1.245 1.767-0.718 3.478 0.627 1.665 1.892 2.179 2.725 2.273 0.864 0.097 1.57-0.167 1.643-0.196l10.924-3.815 0.020-0.459zM25.777 9.983l1.057-0.372c0.105-0.042 2.62-0.933 3.773 1.83 0.819 2.891-1.707 3.749-1.816 3.781l-6.803 2.381-0.014 0.461 6.949-2.432c2.020-0.717 2.699-2.459 2.113-4.34-0.747-1.763-2.089-2.703-4.355-2.084l-0.913 0.32 0.007 0.455zM18.179 19.38l1.816-0.623 0.062-0.489-1.853 0.65-0.025 0.462z"></path>
            <path fill="#000" style="fill: var(--color2, #000)" d="M29.684 12.296c-0.056-0.056-0.125-0.085-0.206-0.085s-0.148 0.028-0.204 0.085c-0.053 0.051-0.085 0.122-0.085 0.201 0 0.001 0 0.003 0 0.004v-0c0 0.081 0.028 0.149 0.084 0.206s0.125 0.085 0.205 0.085 0.149-0.028 0.206-0.085c0.057-0.057 0.085-0.126 0.085-0.206 0-0.001 0-0.003 0-0.004 0-0.079-0.033-0.15-0.085-0.201l-0-0z"></path>
            <path fill="#fff" style="fill: var(--color1, #fff)" d="M29.655 12.324c0.049 0.049 0.073 0.108 0.073 0.177s-0.024 0.129-0.073 0.178c-0.048 0.049-0.107 0.074-0.177 0.074s-0.128-0.025-0.177-0.074c-0.045-0.044-0.072-0.106-0.072-0.173 0-0.002 0-0.003 0-0.005v0c0-0.069 0.024-0.128 0.073-0.177 0.044-0.045 0.105-0.074 0.173-0.074 0.001 0 0.002 0 0.003 0h-0c0.069 0 0.128 0.025 0.177 0.074z"></path>
            <path fill="#000" style="fill: var(--color2, #000)" d="M29.361 12.659h0.056v-0.126h0.044c0.030 0 0.051 0.004 0.063 0.010 0.020 0.012 0.030 0.036 0.030 0.073v0.025l0.001 0.010c0 0.001 0.001 0.002 0.001 0.004l0.001 0.003h0.052l-0.002-0.004c-0.002-0.005-0.003-0.011-0.003-0.017v-0c-0-0.008-0.001-0.016-0.001-0.024v-0.023c-0.001-0.019-0.007-0.036-0.018-0.050l0 0c-0.013-0.017-0.032-0.029-0.054-0.031l-0-0c0.017-0.002 0.033-0.008 0.047-0.016l-0.001 0c0.021-0.013 0.031-0.035 0.031-0.063 0-0.040-0.017-0.067-0.050-0.081-0.018-0.008-0.047-0.011-0.087-0.011h-0.112v0.319z"></path>
            <path fill="#fff" style="fill: var(--color1, #fff)" d="M29.521 12.488c-0.014 0.005-0.030 0.007-0.046 0.007-0.003 0-0.005-0-0.008-0h-0.050v-0.116h0.048c0.031 0 0.054 0.004 0.068 0.012s0.021 0.024 0.021 0.047c0 0.025-0.011 0.041-0.033 0.050z"></path>
        </symbol>
        <symbol id="icon-amazon" viewBox="0 0 32 32">
            <path fill="#ffb300" style="fill: var(--color3, #ffb300)" d="M26.4 26c-2.8 2.067-7 3.333-10.4 3.333-4.867 0-9.2-1.933-12.533-4.933-0.267-0.267 0-0.533 0.267-0.4 3.6 2.067 7.667 3.267 12.2 3.267 3.067 0 6.933-0.667 10.067-2 0.467-0.133 0.867 0.4 0.4 0.733zM27.4 24.6c-0.333-0.467-2.333-0.2-3.2-0.133-0.267 0-0.333-0.2-0.067-0.4 1.533-1.133 4.133-0.8 4.4-0.4s-0.067 3-1.533 4.2c-0.2 0.2-0.467 0.067-0.333-0.133 0.333-0.8 1.067-2.667 0.733-3.133z"></path>
            <path fill="#37474f" style="fill: var(--color4, #37474f)" d="M24.6 19.867c-0.667-0.867-1.333-1.6-1.333-3.267v-5.533c0-2.333 0-4.4-1.667-6-1.333-1.267-3.533-1.733-5.267-1.733-3.667 0-6.867 1.467-7.667 5.6-0.067 0.467 0.267 0.667 0.533 0.733l3.4 0.4c0.333 0 0.533-0.333 0.6-0.667 0.267-1.4 1.4-2.067 2.733-2.067 0.733 0 2.133 0.4 2.133 2v2c-2.133 0-4.4 0-6.267 0.8-2.2 0.933-3.733 2.867-3.733 5.733 0 3.667 2.267 5.467 5.2 5.467 2.467 0 3.933-0.6 5.867-2.533 0.6 0.933 0.867 1.467 2 2.467 0.267 0.133 0.6 0.133 0.8-0.067v0c0.667-0.6 1.933-1.733 2.667-2.333 0.333-0.267 0.267-0.667 0-1zM18 14.733v0c0 1.333-0.067 4.6-3.333 4.6-2 0-2-2-2-2 0-3 2.8-3.333 5.333-3.333v0.733z"></path>
        </symbol>
        <symbol id="icon-microsoft" viewBox="0 0 32 32">
            <path d="M14.667 14.667h-10.667v-10.667h10.667v10.667z"></path>
            <path d="M28 14.667h-10.667v-10.667h10.667v10.667z"></path>
            <path d="M28 28h-10.667v-10.667h10.667v10.667z"></path>
            <path d="M14.667 28h-10.667v-10.667h10.667v10.667z"></path>
        </symbol>
    </defs>
</svg>